<mxfile host="app.diagrams.net" agent="Mozilla/5.0 (Windows NT 10.0; Win64; x64) AppleWebKit/537.36 (KHTML, like Gecko) Chrome/141.0.0.0 Safari/537.36" version="28.2.7">
  <diagram id="Ht1M8jgEwFfnCIfOTk4-" name="Page-1">
    <mxGraphModel grid="1" page="1" gridSize="10" guides="1" tooltips="1" connect="1" arrows="1" fold="1" pageScale="1" pageWidth="1169" pageHeight="827" math="0" shadow="0">
      <root>
        <mxCell id="0" />
        <mxCell id="1" parent="0" />
        <mxCell id="UEzPUAAOIrF-is8g5C7q-74" value="AWS Cloud" style="points=[[0,0],[0.25,0],[0.5,0],[0.75,0],[1,0],[1,0.25],[1,0.5],[1,0.75],[1,1],[0.75,1],[0.5,1],[0.25,1],[0,1],[0,0.75],[0,0.5],[0,0.25]];outlineConnect=0;gradientColor=none;html=1;whiteSpace=wrap;fontSize=12;fontStyle=0;shape=mxgraph.aws4.group;grIcon=mxgraph.aws4.group_aws_cloud_alt;strokeColor=#232F3E;fillColor=none;verticalAlign=top;align=left;spacingLeft=30;fontColor=#232F3E;dashed=0;labelBackgroundColor=#ffffff;container=1;pointerEvents=0;collapsible=0;recursiveResize=0;" vertex="1" parent="1">
          <mxGeometry x="50" y="70" width="1070" height="690" as="geometry" />
        </mxCell>
        <mxCell id="C9x4Pl9KThRvJZE5rTCZ-1" value="Region" style="points=[[0,0],[0.25,0],[0.5,0],[0.75,0],[1,0],[1,0.25],[1,0.5],[1,0.75],[1,1],[0.75,1],[0.5,1],[0.25,1],[0,1],[0,0.75],[0,0.5],[0,0.25]];outlineConnect=0;gradientColor=none;html=1;whiteSpace=wrap;fontSize=12;fontStyle=0;container=1;pointerEvents=0;collapsible=0;recursiveResize=0;shape=mxgraph.aws4.group;grIcon=mxgraph.aws4.group_region;strokeColor=#00A4A6;fillColor=none;verticalAlign=top;align=left;spacingLeft=30;fontColor=#147EBA;dashed=1;" vertex="1" parent="1">
          <mxGeometry x="70" y="110" width="1020" height="630" as="geometry" />
        </mxCell>
        <mxCell id="C9x4Pl9KThRvJZE5rTCZ-8" value="&lt;font style=&quot;font-size: 14px;&quot;&gt;Availability Zone A&lt;/font&gt;" style="fillColor=none;strokeColor=#147EBA;dashed=1;verticalAlign=top;fontStyle=0;fontColor=#147EBA;whiteSpace=wrap;html=1;" vertex="1" parent="C9x4Pl9KThRvJZE5rTCZ-1">
          <mxGeometry x="80" y="40" width="350" height="560" as="geometry" />
        </mxCell>
        <mxCell id="C9x4Pl9KThRvJZE5rTCZ-9" value="&lt;font style=&quot;font-size: 14px;&quot;&gt;Availability Zone B&lt;/font&gt;" style="fillColor=none;strokeColor=#147EBA;dashed=1;verticalAlign=top;fontStyle=0;fontColor=#147EBA;whiteSpace=wrap;html=1;" vertex="1" parent="C9x4Pl9KThRvJZE5rTCZ-1">
          <mxGeometry x="640" y="40" width="340" height="560" as="geometry" />
        </mxCell>
        <mxCell id="C9x4Pl9KThRvJZE5rTCZ-10" value="&lt;font style=&quot;font-size: 14px;&quot;&gt;Public subnet 1&lt;/font&gt;&lt;div&gt;&lt;font size=&quot;3&quot;&gt;10.0.0.0/24&lt;/font&gt;&lt;/div&gt;" style="points=[[0,0],[0.25,0],[0.5,0],[0.75,0],[1,0],[1,0.25],[1,0.5],[1,0.75],[1,1],[0.75,1],[0.5,1],[0.25,1],[0,1],[0,0.75],[0,0.5],[0,0.25]];outlineConnect=0;gradientColor=none;html=1;whiteSpace=wrap;fontSize=12;fontStyle=0;container=1;pointerEvents=0;collapsible=0;recursiveResize=0;shape=mxgraph.aws4.group;grIcon=mxgraph.aws4.group_security_group;grStroke=0;strokeColor=#7AA116;fillColor=#F2F6E8;verticalAlign=top;align=left;spacingLeft=30;fontColor=#248814;dashed=0;" vertex="1" parent="C9x4Pl9KThRvJZE5rTCZ-1">
          <mxGeometry x="110" y="90" width="280" height="180" as="geometry" />
        </mxCell>
        <mxCell id="C9x4Pl9KThRvJZE5rTCZ-11" value="&lt;font style=&quot;font-size: 14px;&quot;&gt;Public subnet 2&lt;/font&gt;&lt;div&gt;&lt;font size=&quot;3&quot;&gt;10.0.2.0/24&lt;/font&gt;&lt;/div&gt;" style="points=[[0,0],[0.25,0],[0.5,0],[0.75,0],[1,0],[1,0.25],[1,0.5],[1,0.75],[1,1],[0.75,1],[0.5,1],[0.25,1],[0,1],[0,0.75],[0,0.5],[0,0.25]];outlineConnect=0;gradientColor=none;html=1;whiteSpace=wrap;fontSize=12;fontStyle=0;container=1;pointerEvents=0;collapsible=0;recursiveResize=0;shape=mxgraph.aws4.group;grIcon=mxgraph.aws4.group_security_group;grStroke=0;strokeColor=#7AA116;fillColor=#F2F6E8;verticalAlign=top;align=left;spacingLeft=30;fontColor=#248814;dashed=0;" vertex="1" parent="C9x4Pl9KThRvJZE5rTCZ-1">
          <mxGeometry x="670" y="90" width="280" height="180" as="geometry" />
        </mxCell>
        <mxCell id="C9x4Pl9KThRvJZE5rTCZ-12" value="NatGateway" style="sketch=0;outlineConnect=0;fontColor=#232F3E;gradientColor=none;fillColor=#8C4FFF;strokeColor=none;dashed=0;verticalLabelPosition=bottom;verticalAlign=top;align=center;html=1;fontSize=12;fontStyle=0;aspect=fixed;pointerEvents=1;shape=mxgraph.aws4.nat_gateway;" vertex="1" parent="C9x4Pl9KThRvJZE5rTCZ-1">
          <mxGeometry x="220" y="160" width="50" height="50" as="geometry" />
        </mxCell>
        <mxCell id="C9x4Pl9KThRvJZE5rTCZ-13" value="&lt;font style=&quot;font-size: 14px;&quot;&gt;Private subnet 1&lt;/font&gt;&lt;div&gt;&lt;font size=&quot;3&quot;&gt;10.0.1.0/24&lt;/font&gt;&lt;/div&gt;" style="points=[[0,0],[0.25,0],[0.5,0],[0.75,0],[1,0],[1,0.25],[1,0.5],[1,0.75],[1,1],[0.75,1],[0.5,1],[0.25,1],[0,1],[0,0.75],[0,0.5],[0,0.25]];outlineConnect=0;gradientColor=none;html=1;whiteSpace=wrap;fontSize=12;fontStyle=0;container=1;pointerEvents=0;collapsible=0;recursiveResize=0;shape=mxgraph.aws4.group;grIcon=mxgraph.aws4.group_security_group;grStroke=0;strokeColor=#00A4A6;fillColor=#E6F6F7;verticalAlign=top;align=left;spacingLeft=30;fontColor=#147EBA;dashed=0;" vertex="1" parent="C9x4Pl9KThRvJZE5rTCZ-1">
          <mxGeometry x="110" y="280" width="280" height="260" as="geometry" />
        </mxCell>
        <mxCell id="C9x4Pl9KThRvJZE5rTCZ-26" value="RDS DB Primary" style="sketch=0;points=[[0,0,0],[0.25,0,0],[0.5,0,0],[0.75,0,0],[1,0,0],[0,1,0],[0.25,1,0],[0.5,1,0],[0.75,1,0],[1,1,0],[0,0.25,0],[0,0.5,0],[0,0.75,0],[1,0.25,0],[1,0.5,0],[1,0.75,0]];outlineConnect=0;fontColor=#232F3E;fillColor=#C925D1;strokeColor=#ffffff;dashed=0;verticalLabelPosition=bottom;verticalAlign=top;align=center;html=1;fontSize=12;fontStyle=0;aspect=fixed;shape=mxgraph.aws4.resourceIcon;resIcon=mxgraph.aws4.rds;" vertex="1" parent="C9x4Pl9KThRvJZE5rTCZ-13">
          <mxGeometry x="123" y="180" width="44" height="44" as="geometry" />
        </mxCell>
        <mxCell id="C9x4Pl9KThRvJZE5rTCZ-27" value="Security group" style="fillColor=none;strokeColor=#DD3522;verticalAlign=top;fontStyle=0;fontColor=#DD3522;whiteSpace=wrap;html=1;" vertex="1" parent="C9x4Pl9KThRvJZE5rTCZ-13">
          <mxGeometry x="85" y="160" width="110" height="90" as="geometry" />
        </mxCell>
        <mxCell id="C9x4Pl9KThRvJZE5rTCZ-15" value="&lt;font style=&quot;font-size: 14px;&quot;&gt;Private subnet 2&lt;/font&gt;&lt;div&gt;&lt;font size=&quot;3&quot;&gt;10.0.3.0/24&lt;/font&gt;&lt;/div&gt;" style="points=[[0,0],[0.25,0],[0.5,0],[0.75,0],[1,0],[1,0.25],[1,0.5],[1,0.75],[1,1],[0.75,1],[0.5,1],[0.25,1],[0,1],[0,0.75],[0,0.5],[0,0.25]];outlineConnect=0;gradientColor=none;html=1;whiteSpace=wrap;fontSize=12;fontStyle=0;container=1;pointerEvents=0;collapsible=0;recursiveResize=0;shape=mxgraph.aws4.group;grIcon=mxgraph.aws4.group_security_group;grStroke=0;strokeColor=#00A4A6;fillColor=#E6F6F7;verticalAlign=top;align=left;spacingLeft=30;fontColor=#147EBA;dashed=0;" vertex="1" parent="C9x4Pl9KThRvJZE5rTCZ-1">
          <mxGeometry x="670" y="280" width="280" height="260" as="geometry" />
        </mxCell>
        <mxCell id="C9x4Pl9KThRvJZE5rTCZ-25" value="Security group" style="fillColor=none;strokeColor=#DD3522;verticalAlign=top;fontStyle=0;fontColor=#DD3522;whiteSpace=wrap;html=1;" vertex="1" parent="C9x4Pl9KThRvJZE5rTCZ-15">
          <mxGeometry x="80" y="160" width="110" height="90" as="geometry" />
        </mxCell>
        <mxCell id="C9x4Pl9KThRvJZE5rTCZ-17" value="" style="sketch=0;outlineConnect=0;fontColor=#232F3E;gradientColor=none;fillColor=#ED7100;strokeColor=none;dashed=0;verticalLabelPosition=bottom;verticalAlign=top;align=center;html=1;fontSize=12;fontStyle=0;aspect=fixed;pointerEvents=1;shape=mxgraph.aws4.instance2;" vertex="1" parent="C9x4Pl9KThRvJZE5rTCZ-1">
          <mxGeometry x="210" y="380" width="48" height="48" as="geometry" />
        </mxCell>
        <mxCell id="C9x4Pl9KThRvJZE5rTCZ-16" value="&lt;font style=&quot;font-size: 14px;&quot;&gt;Auto Scaling&amp;nbsp;&lt;/font&gt;&lt;div&gt;&lt;font style=&quot;font-size: 14px;&quot;&gt;group&lt;/font&gt;&lt;/div&gt;" style="points=[[0,0],[0.25,0],[0.5,0],[0.75,0],[1,0],[1,0.25],[1,0.5],[1,0.75],[1,1],[0.75,1],[0.5,1],[0.25,1],[0,1],[0,0.75],[0,0.5],[0,0.25]];outlineConnect=0;gradientColor=none;html=1;whiteSpace=wrap;fontSize=12;fontStyle=0;container=1;pointerEvents=0;collapsible=0;recursiveResize=0;shape=mxgraph.aws4.groupCenter;grIcon=mxgraph.aws4.group_auto_scaling_group;grStroke=1;strokeColor=#D86613;fillColor=none;verticalAlign=top;align=center;fontColor=#D86613;dashed=1;spacingTop=25;" vertex="1" parent="C9x4Pl9KThRvJZE5rTCZ-1">
          <mxGeometry x="130" y="324" width="800" height="110" as="geometry" />
        </mxCell>
        <mxCell id="C9x4Pl9KThRvJZE5rTCZ-18" value="" style="sketch=0;outlineConnect=0;fontColor=#232F3E;gradientColor=none;fillColor=#ED7100;strokeColor=none;dashed=0;verticalLabelPosition=bottom;verticalAlign=top;align=center;html=1;fontSize=12;fontStyle=0;aspect=fixed;pointerEvents=1;shape=mxgraph.aws4.instance2;" vertex="1" parent="C9x4Pl9KThRvJZE5rTCZ-16">
          <mxGeometry x="100" y="20" width="48" height="48" as="geometry" />
        </mxCell>
        <mxCell id="C9x4Pl9KThRvJZE5rTCZ-19" value="" style="sketch=0;outlineConnect=0;fontColor=#232F3E;gradientColor=none;fillColor=#ED7100;strokeColor=none;dashed=0;verticalLabelPosition=bottom;verticalAlign=top;align=center;html=1;fontSize=12;fontStyle=0;aspect=fixed;pointerEvents=1;shape=mxgraph.aws4.instance2;" vertex="1" parent="C9x4Pl9KThRvJZE5rTCZ-16">
          <mxGeometry x="640" y="20.5" width="48" height="48" as="geometry" />
        </mxCell>
        <mxCell id="C9x4Pl9KThRvJZE5rTCZ-32" value="Web Instances" style="text;html=1;whiteSpace=wrap;strokeColor=none;fillColor=none;align=center;verticalAlign=middle;rounded=0;" vertex="1" parent="C9x4Pl9KThRvJZE5rTCZ-16">
          <mxGeometry x="180" y="40" width="60" height="30" as="geometry" />
        </mxCell>
        <mxCell id="C9x4Pl9KThRvJZE5rTCZ-33" value="Web Instances" style="text;html=1;whiteSpace=wrap;strokeColor=none;fillColor=none;align=center;verticalAlign=middle;rounded=0;" vertex="1" parent="C9x4Pl9KThRvJZE5rTCZ-16">
          <mxGeometry x="730" y="40" width="60" height="30" as="geometry" />
        </mxCell>
        <mxCell id="C9x4Pl9KThRvJZE5rTCZ-36" value="" style="edgeStyle=orthogonalEdgeStyle;html=1;endArrow=none;elbow=vertical;startArrow=block;startFill=1;strokeColor=#545B64;rounded=0;exitX=0;exitY=0.25;exitDx=0;exitDy=0;" edge="1" parent="C9x4Pl9KThRvJZE5rTCZ-16" source="C9x4Pl9KThRvJZE5rTCZ-24">
          <mxGeometry width="100" relative="1" as="geometry">
            <mxPoint x="530" y="26" as="sourcePoint" />
            <mxPoint x="400" y="-34" as="targetPoint" />
            <Array as="points">
              <mxPoint x="450" y="31" />
              <mxPoint x="450" y="-14" />
              <mxPoint x="400" y="-14" />
            </Array>
          </mxGeometry>
        </mxCell>
        <mxCell id="C9x4Pl9KThRvJZE5rTCZ-24" value="Security group" style="fillColor=none;strokeColor=#DD3522;verticalAlign=top;fontStyle=0;fontColor=#DD3522;whiteSpace=wrap;html=1;" vertex="1" parent="C9x4Pl9KThRvJZE5rTCZ-1">
          <mxGeometry x="750" y="330" width="110" height="100" as="geometry" />
        </mxCell>
        <mxCell id="C9x4Pl9KThRvJZE5rTCZ-20" value="" style="sketch=0;outlineConnect=0;fontColor=#232F3E;gradientColor=none;fillColor=#ED7100;strokeColor=none;dashed=0;verticalLabelPosition=bottom;verticalAlign=top;align=center;html=1;fontSize=12;fontStyle=0;aspect=fixed;pointerEvents=1;shape=mxgraph.aws4.instance2;" vertex="1" parent="C9x4Pl9KThRvJZE5rTCZ-1">
          <mxGeometry x="790" y="374" width="48" height="48" as="geometry" />
        </mxCell>
        <mxCell id="C9x4Pl9KThRvJZE5rTCZ-22" value="RDS DB Secundary" style="sketch=0;points=[[0,0,0],[0.25,0,0],[0.5,0,0],[0.75,0,0],[1,0,0],[0,1,0],[0.25,1,0],[0.5,1,0],[0.75,1,0],[1,1,0],[0,0.25,0],[0,0.5,0],[0,0.75,0],[1,0.25,0],[1,0.5,0],[1,0.75,0]];outlineConnect=0;fontColor=#232F3E;fillColor=#C925D1;strokeColor=#ffffff;dashed=0;verticalLabelPosition=bottom;verticalAlign=top;align=center;html=1;fontSize=12;fontStyle=0;aspect=fixed;shape=mxgraph.aws4.resourceIcon;resIcon=mxgraph.aws4.rds;" vertex="1" parent="C9x4Pl9KThRvJZE5rTCZ-1">
          <mxGeometry x="783" y="460" width="44" height="44" as="geometry" />
        </mxCell>
        <mxCell id="C9x4Pl9KThRvJZE5rTCZ-28" value="Internet&lt;div&gt;Gateway&lt;/div&gt;" style="sketch=0;outlineConnect=0;fontColor=#232F3E;gradientColor=none;fillColor=#8C4FFF;strokeColor=none;dashed=0;verticalLabelPosition=bottom;verticalAlign=top;align=center;html=1;fontSize=12;fontStyle=0;aspect=fixed;pointerEvents=1;shape=mxgraph.aws4.internet_gateway;" vertex="1" parent="C9x4Pl9KThRvJZE5rTCZ-1">
          <mxGeometry x="501" y="50" width="58" height="58" as="geometry" />
        </mxCell>
        <mxCell id="C9x4Pl9KThRvJZE5rTCZ-29" value="Application&lt;div&gt;Load&lt;/div&gt;&lt;div&gt;Balancer&lt;/div&gt;" style="sketch=0;outlineConnect=0;fontColor=#232F3E;gradientColor=none;fillColor=#8C4FFF;strokeColor=none;dashed=0;verticalLabelPosition=bottom;verticalAlign=top;align=center;html=1;fontSize=12;fontStyle=0;aspect=fixed;pointerEvents=1;shape=mxgraph.aws4.application_load_balancer;" vertex="1" parent="C9x4Pl9KThRvJZE5rTCZ-1">
          <mxGeometry x="501" y="170" width="59" height="59" as="geometry" />
        </mxCell>
        <mxCell id="C9x4Pl9KThRvJZE5rTCZ-23" value="Security group" style="fillColor=none;strokeColor=#DD3522;verticalAlign=top;fontStyle=0;fontColor=#DD3522;whiteSpace=wrap;html=1;" vertex="1" parent="C9x4Pl9KThRvJZE5rTCZ-1">
          <mxGeometry x="195" y="329" width="110" height="100" as="geometry" />
        </mxCell>
        <mxCell id="C9x4Pl9KThRvJZE5rTCZ-34" value="Security group" style="fillColor=none;strokeColor=#DD3522;verticalAlign=top;fontStyle=0;fontColor=#DD3522;whiteSpace=wrap;html=1;" vertex="1" parent="C9x4Pl9KThRvJZE5rTCZ-1">
          <mxGeometry x="466" y="151" width="130" height="130" as="geometry" />
        </mxCell>
        <mxCell id="C9x4Pl9KThRvJZE5rTCZ-35" value="" style="edgeStyle=orthogonalEdgeStyle;html=1;endArrow=none;elbow=vertical;startArrow=block;startFill=1;strokeColor=#545B64;rounded=0;exitX=1;exitY=0.25;exitDx=0;exitDy=0;entryX=0.5;entryY=1;entryDx=0;entryDy=0;" edge="1" parent="C9x4Pl9KThRvJZE5rTCZ-1" source="C9x4Pl9KThRvJZE5rTCZ-23" target="C9x4Pl9KThRvJZE5rTCZ-34">
          <mxGeometry width="100" relative="1" as="geometry">
            <mxPoint x="490" y="290" as="sourcePoint" />
            <mxPoint x="590" y="290" as="targetPoint" />
            <Array as="points">
              <mxPoint x="490" y="354" />
              <mxPoint x="490" y="310" />
              <mxPoint x="530" y="310" />
              <mxPoint x="530" y="281" />
            </Array>
          </mxGeometry>
        </mxCell>
        <mxCell id="C9x4Pl9KThRvJZE5rTCZ-38" value="" style="edgeStyle=orthogonalEdgeStyle;html=1;endArrow=none;elbow=vertical;startArrow=block;startFill=1;strokeColor=#545B64;rounded=0;exitX=1;exitY=0.5;exitDx=0;exitDy=0;entryX=0;entryY=0.75;entryDx=0;entryDy=0;" edge="1" parent="C9x4Pl9KThRvJZE5rTCZ-1" source="C9x4Pl9KThRvJZE5rTCZ-27" target="C9x4Pl9KThRvJZE5rTCZ-24">
          <mxGeometry width="100" relative="1" as="geometry">
            <mxPoint x="490" y="290" as="sourcePoint" />
            <mxPoint x="590" y="290" as="targetPoint" />
            <Array as="points">
              <mxPoint x="590" y="485" />
              <mxPoint x="590" y="405" />
            </Array>
          </mxGeometry>
        </mxCell>
        <mxCell id="C9x4Pl9KThRvJZE5rTCZ-39" value="" style="edgeStyle=orthogonalEdgeStyle;html=1;endArrow=none;elbow=vertical;startArrow=openThin;startFill=0;strokeColor=#545B64;rounded=0;dashed=1;entryX=1;entryY=0.75;entryDx=0;entryDy=0;exitX=0;exitY=0.75;exitDx=0;exitDy=0;" edge="1" parent="C9x4Pl9KThRvJZE5rTCZ-1" source="C9x4Pl9KThRvJZE5rTCZ-25" target="C9x4Pl9KThRvJZE5rTCZ-27">
          <mxGeometry width="100" relative="1" as="geometry">
            <mxPoint x="490" y="290" as="sourcePoint" />
            <mxPoint x="590" y="290" as="targetPoint" />
            <Array as="points" />
          </mxGeometry>
        </mxCell>
        <mxCell id="C9x4Pl9KThRvJZE5rTCZ-40" value="&lt;b&gt;VPC&amp;nbsp; &amp;nbsp;10.0.0.0/16&lt;/b&gt;" style="sketch=0;outlineConnect=0;gradientColor=none;html=1;whiteSpace=wrap;fontSize=12;fontStyle=0;shape=mxgraph.aws4.group;grIcon=mxgraph.aws4.group_vpc;strokeColor=#879196;fillColor=none;verticalAlign=top;align=left;spacingLeft=30;fontColor=#879196;dashed=0;" vertex="1" parent="1">
          <mxGeometry x="100" y="140" width="970" height="580" as="geometry" />
        </mxCell>
      </root>
    </mxGraphModel>
  </diagram>
</mxfile>
